<svg id="WhatsApp_Logo" data-name="WhatsApp Logo" xmlns="http://www.w3.org/2000/svg" viewBox="0 0 656.41 743.1"><defs><style>.cls-1{fill:#fff;}</style></defs><title>arroba</title><path class="cls-1" d="M498.94,670.56C442.32,715.68,369.78,743.1,288.4,743.1c-96.43,0-166.31-38.92-215.85-98.2C21.23,583.87,0,505.13,0,417.55c0-101.73,34.5-211.43,100-291C160.12,53.08,247.7,0,354.74,0,458.25,0,550.25,40.69,606,123.85c31.85,47.77,50.42,111.47,50.42,173.39,0,97.31-43.35,207.89-150.39,207.89-80.5,0-118.54-31.85-131.81-107-23,52.19-64.58,104.39-129.16,104.39-50.42,0-72.54-48.66-72.54-99.08,0-68.12,28.31-128.27,74.31-170.74,32.73-31,72.54-54.85,160.12-54.85,8.85,0,17.69,0,27.42.88-5.31,53.08-8.85,100-8.85,139.77,0,100,20.35,156.58,81.39,156.58,70.77,0,107.93-78.73,107.93-161,0-166.31-101.73-280.43-253.89-280.43-208.78,0-313.16,180.47-310.51,383.94,1.77,156.58,82.27,283.09,238,290.16,88.46,4.42,161.89-27.42,210.55-71.66ZM369.78,349.44c-.88-9.73-.88-20.35-.88-31a1112.1,1112.1,0,0,1,6.19-113.23C288.4,210.55,227.35,281.32,226.47,368c-.88,54,12.38,86.7,47.77,90.23C314.05,461.79,349.44,406.94,369.78,349.44Z"/></svg>