<svg id="WhatsApp_Logo" data-name="WhatsApp Logo" xmlns="http://www.w3.org/2000/svg" viewBox="0 0 418.86 420.88"><defs><style>.cls-1{fill:#fff;fill-rule:evenodd;}</style></defs><title>whas</title><g id="WA_Logo" data-name="WA Logo"><path class="cls-1" d="M810.76,386.68a207.2,207.2,0,0,0-147.53-61.16c-115,0-208.51,93.55-208.56,208.54a208.18,208.18,0,0,0,27.84,104.26L452.92,746.4l110.56-29a208.37,208.37,0,0,0,99.66,25.38h.09c114.94,0,208.51-93.56,208.55-208.55A207.29,207.29,0,0,0,810.76,386.68ZM663.23,707.56h-.07a173.08,173.08,0,0,1-88.23-24.16l-6.33-3.76L503,696.85l17.51-64-4.12-6.56a172.93,172.93,0,0,1-26.5-92.25c0-95.57,77.8-173.33,173.42-173.33A173.37,173.37,0,0,1,836.57,534.21C836.53,629.79,758.77,707.56,663.23,707.56Zm95.08-129.82c-5.21-2.61-30.83-15.21-35.61-17s-8.25-2.61-11.72,2.61-13.46,17-16.5,20.43-6.08,3.91-11.29,1.3-22-8.11-41.91-25.86c-15.49-13.82-25.95-30.88-29-36.1s-.32-8,2.28-10.63c2.34-2.34,5.21-6.09,7.82-9.13s3.47-5.22,5.21-8.69.87-6.52-.43-9.13-11.72-28.26-16.07-38.69c-4.23-10.16-8.53-8.78-11.72-8.95-3-.15-6.51-.18-10-.18a19.14,19.14,0,0,0-13.9,6.52c-4.78,5.22-18.24,17.83-18.24,43.47s18.67,50.43,21.28,53.91,36.75,56.11,89,78.69a299.33,299.33,0,0,0,29.71,11c12.48,4,23.84,3.41,32.82,2.07,10-1.5,30.83-12.61,35.17-24.78s4.34-22.61,3-24.78S763.52,580.34,758.31,577.73Z" transform="translate(-452.92 -325.52)"/></g></svg>